<svg xmlns="http://www.w3.org/2000/svg" viewBox="0 0 312 312"><defs><style>.cls-1{fill:#f59e0b;}.cls-2{fill:#1e3a5f;}</style></defs><g id="Layer_2" data-name="Layer 2"><g id="Layer_1-2" data-name="Layer 1"><rect class="cls-1" width="312" height="312" rx="32"/><path class="cls-2" d="M155.53,44.43c0,7,0,13.85,0,20.72a2.06,2.06,0,0,1-1.15,2.06c-18.91,11-70.81,41.06-77.88,45.05a1.79,1.79,0,0,0-1.07,1.81q0,46.16,0,92.31a2.16,2.16,0,0,0,1.22,2.17c8.75,4.9,54.49,31.66,68.64,40.1,3.27,1.95,6.59,3.82,9.84,5.82a2.43,2.43,0,0,0,2.92-.08c13.15-8,65-39.88,77.83-47.83a3,3,0,0,0,1.42-2.6q-.09-10.1,0-20.2c0-1.23-.3-1.64-1.59-1.63-7.13.06-14.26,0-21.39,0h-1.8v-1.58q0-29.25,0-58.49a2.05,2.05,0,0,0-1.22-2.12c-16.07-8.81-50.91-28.15-52.34-28.83a2.08,2.08,0,0,0-1.71,0c-10.59,6.16-43.18,25.2-48.93,28.48a1.83,1.83,0,0,0-1,1.84q0,34.91-.06,69.81a2.57,2.57,0,0,0,1.32,2.46c4,2.4,34.84,19.76,46.19,26.14a2.26,2.26,0,0,0,3.08-.34c1.39-1.21,2.88-2.31,4-3.21l11,10.23c-1.21.8-11.66,7.1-15.94,9.67a1.86,1.86,0,0,1-2.21,0c-12.9-7.42-53.74-29.54-61.25-33.17a1.77,1.77,0,0,1-1.17-1.86q0-43.48,0-87a2,2,0,0,1,1.2-2Q124.24,94.64,154.9,77c.39-.23,3.51-2.88,7.27-.73,13.25,7.56,73.83,42.34,74.29,42.56,0-.57,0-8.89.07-12.62a2.44,2.44,0,0,0-1.4-2.49q-9-5.07-18-10.22c-5.95-3.39-11.9-6.81-17.86-10.18-1.11-.63-1.46-1.37-1.15-3.11a25.28,25.28,0,0,0,.06-8.93,9,9,0,0,1,0-2.54c.76.39,1.41.67,2,1,15,8.87,47.88,28.42,49.47,29.21a2.26,2.26,0,0,1,1.36,2.36c0,27.08,0,100.44,0,110a2.24,2.24,0,0,1-1.22,2.17c-11.82,7.38-85.62,52.55-91.68,56.21a2.46,2.46,0,0,1-2.93,0C143.67,263,69.56,219.93,62,215.59c-.92-.52-.93-1.19-.93-2,0-23.68,0-98.85,0-112.76a2.4,2.4,0,0,1,1.36-2.36c21.83-13.19,92.46-56.27,93.17-56.67Z"/><path class="cls-2" d="M142.67,154.49c0-1.32.35-1.74,1.72-1.74,9.54.06,19.07,0,28.61.07,1.37,0,1.92-.31,1.85-1.79-.11-2.78-.1-5.56,0-8.34.05-1.42-.41-1.85-1.83-1.84-9.37.06-29.44,0-30.22,0v-9.07c.65,0,21.4-.1,31.22-.09,3.31,0,6.4.69,8.31,3.69a9,9,0,0,1,1.54,4.07c.24,3.72.13,7.47.16,11.21a9.33,9.33,0,0,1-2.55,6.69c2.76,2.61,2.58,6,2.53,9.35,0,2.44,0,4.88,0,7.32-.07,5.22-3.48,8.73-8.73,9l-30.8.47-1.72,0s0-2,0-2C142.73,180.28,142.67,155.74,142.67,154.49Zm22.47,7.45c-3.91,0-7.82,0-11.74,0-.92,0-1.48.15-1.46,1.28.05,3.12,0,6.24,0,9.36,0,.89.24,1.34,1.25,1.33q10.29,0,20.58,0c.89,0,1.18-.35,1.17-1.21,0-3.17,0-6.35,0-9.52,0-1-.37-1.28-1.31-1.27C170.92,162,168.2,161.93,165.14,161.94Z"/></g></g></svg>