<svg xmlns="http://www.w3.org/2000/svg" viewBox="0 0 312 312"><defs><style>.cls-1{fill:#f59e0b;}.cls-2{fill:#fff;}</style></defs><g id="Layer_2" data-name="Layer 2"><g id="Layer_1-2" data-name="Layer 1"><rect class="cls-1" width="312" height="312" rx="32"/><path class="cls-2" d="M155.53,44.43c0,7,0,13.85,0,20.72a2.06,2.06,0,0,1-1.15,2.06c-18.91,11-70.81,41.06-77.88,45.05a1.79,1.79,0,0,0-1.07,1.81q0,46.16,0,92.31a2.16,2.16,0,0,0,1.22,2.17c8.75,4.9,54.49,31.66,68.64,40.1,3.27,1.95,6.59,3.82,9.84,5.82a2.43,2.43,0,0,0,2.92-.08c13.15-8,65-39.88,77.83-47.83a3,3,0,0,0,1.42-2.6q-.09-10.1,0-20.2c0-1.23-.3-1.64-1.59-1.63-7.13.06-14.26,0-21.39,0h-1.8v-1.58q0-29.25,0-58.49a2.05,2.05,0,0,0-1.22-2.12c-16.07-8.81-50.91-28.15-52.34-28.83a2.08,2.08,0,0,0-1.71,0c-10.59,6.16-43.18,25.2-48.93,28.48a1.83,1.83,0,0,0-1,1.84q0,34.91-.06,69.81a2.57,2.57,0,0,0,1.32,2.46c4,2.4,34.84,19.76,46.19,26.14a2.26,2.26,0,0,0,3.08-.34c1.39-1.21,2.88-2.31,4-3.21l11,10.23c-1.21.8-11.66,7.1-15.94,9.67a1.86,1.86,0,0,1-2.21,0c-12.9-7.42-53.74-29.54-61.25-33.17a1.77,1.77,0,0,1-1.17-1.86q0-43.48,0-87a2,2,0,0,1,1.2-2Q124.24,94.64,154.9,77c.39-.23,3.51-2.88,7.27-.73,13.25,7.56,73.83,42.34,74.29,42.56,0-.57,0-8.89.07-12.62a2.44,2.44,0,0,0-1.4-2.49q-9-5.07-18-10.22c-5.95-3.39-11.9-6.81-17.86-10.18-1.11-.63-1.46-1.37-1.15-3.11a25.28,25.28,0,0,0,.06-8.93,9,9,0,0,1,0-2.54c.76.39,1.41.67,2,1,15,8.87,47.88,28.42,49.47,29.21a2.26,2.26,0,0,1,1.36,2.36c0,27.08,0,100.44,0,110a2.24,2.24,0,0,1-1.22,2.17c-11.82,7.38-85.62,52.55-91.68,56.21a2.46,2.46,0,0,1-2.93,0C143.67,263,69.56,219.93,62,215.59c-.92-.52-.93-1.19-.93-2,0-23.68,0-98.85,0-112.76a2.4,2.4,0,0,1,1.36-2.36c21.83-13.19,92.46-56.27,93.17-56.67Z"/><path class="cls-2" d="M145.33,154.79c0-1,.28-1.39,1.38-1.39,7.63,0,15.26,0,22.89.06,1.1,0,1.53-.26,1.49-1.43-.1-2.23-.09-4.45,0-6.68,0-1.14-.33-1.48-1.46-1.47-7.5.05-23.56,0-24.18,0v-7.26c.51,0,17.12-.08,25-.07,2.64,0,5.12.55,6.65,3a7.2,7.2,0,0,1,1.23,3.25c.19,3,.11,6,.13,9a7.46,7.46,0,0,1-2,5.35c2.21,2.09,2.06,4.79,2,7.48,0,2,0,3.91,0,5.86a6.89,6.89,0,0,1-7,7.17l-24.64.38-1.38,0s0-1.59,0-1.6C145.38,175.43,145.34,155.79,145.33,154.79Zm18,6c-3.13,0-6.26,0-9.39,0-.74,0-1.19.12-1.17,1,0,2.5,0,5,0,7.49,0,.71.19,1.07,1,1.07,5.49,0,11,0,16.47,0,.71,0,.94-.28.94-1,0-2.54,0-5.08,0-7.62,0-.77-.29-1-1-1C167.94,160.76,165.76,160.75,163.31,160.75Z"/></g></g></svg>