<svg xmlns="http://www.w3.org/2000/svg" viewBox="0 0 230 230"><defs><style>.cls-1{fill:#1e3a5f;}.cls-2{fill:#f59e0b;}</style></defs><g id="Layer_2" data-name="Layer 2"><g id="Layer_1-2" data-name="Layer 1"><rect class="cls-1" width="230" height="230"/><path class="cls-2" d="M47.8,81.71v66.58a9.74,9.74,0,0,0,4.85,8.42l10.46,6V84.85H74.25v0l20.37,35.37L115,84.86h11.15L115,104.21l-14.8,25.7-5.57,9.68-5.57-9.68-14.8-25.69v84.45l-11.15-6.46L38.27,167.84A14.6,14.6,0,0,1,31,155.21V74.79a14.6,14.6,0,0,1,7.27-12.63L107.73,22a14.53,14.53,0,0,1,14.54,0l22.24,12.88V54.28L119.85,40a9.66,9.66,0,0,0-9.7,0L52.65,73.29A9.74,9.74,0,0,0,47.8,81.71Z"/><path class="cls-2" d="M199,74.79v80.42a14.6,14.6,0,0,1-7.27,12.63l-69.46,40.21a14.53,14.53,0,0,1-14.54,0L85.42,195.13V175.68L110.15,190a9.66,9.66,0,0,0,9.7,0l57.5-33.29a9.74,9.74,0,0,0,4.85-8.42V81.71a9.74,9.74,0,0,0-4.85-8.42l-10.46-6.05v77.91H155.74V119.84H126.15v25.31H115V114l11.15-19.37v15.58h29.59V41.33l11.15,6.46,24.84,14.37A14.6,14.6,0,0,1,199,74.79Z"/></g></g></svg>