<svg xmlns="http://www.w3.org/2000/svg" viewBox="0 0 168 190"><defs><style>.cls-1{fill:#f59e0b;}</style></defs><g id="Layer_2" data-name="Layer 2"><g id="Layer_1-2" data-name="Layer 1"><path class="cls-1" d="M16.8,61.71v66.58a9.74,9.74,0,0,0,4.85,8.42l10.46,6V64.85H43.25v0l20.37,35.37L84,64.86H95.15L84,84.21l-14.8,25.7-5.57,9.68-5.57-9.68L43.26,84.22v84.45l-11.15-6.46L7.27,147.84A14.6,14.6,0,0,1,0,135.21V54.79A14.6,14.6,0,0,1,7.27,42.16L76.73,2A14.53,14.53,0,0,1,91.27,2l22.24,12.88V34.28L88.85,20a9.66,9.66,0,0,0-9.7,0L21.65,53.29A9.74,9.74,0,0,0,16.8,61.71Z"/><path class="cls-1" d="M168,54.79v80.42a14.6,14.6,0,0,1-7.27,12.63L91.27,188.05a14.53,14.53,0,0,1-14.54,0L54.42,175.13V155.68L79.15,170a9.66,9.66,0,0,0,9.7,0l57.5-33.29a9.74,9.74,0,0,0,4.85-8.42V61.71a9.74,9.74,0,0,0-4.85-8.42l-10.46-6v77.91H124.74V99.84H95.15v25.31H84V94L95.15,74.58V90.16h29.59V21.33l11.15,6.46,24.84,14.37A14.6,14.6,0,0,1,168,54.79Z"/></g></g></svg>